<?xml version="1.0" standalone="no"?><!DOCTYPE svg PUBLIC "-//W3C//DTD SVG 1.1//EN" "http://www.w3.org/Graphics/SVG/1.1/DTD/svg11.dtd"><svg t="1701164570311" class="icon" viewBox="0 0 1024 1024" version="1.1" xmlns="http://www.w3.org/2000/svg" p-id="2620" xmlns:xlink="http://www.w3.org/1999/xlink" width="200" height="200"><path d="M419.5 128.25c0-19.33-15.67-35-35-35H127.11c-10.27-1.21-20.97 2.12-28.85 10-8.33 8.33-11.57 19.81-9.75 30.6v255.4c0 19.33 15.67 35 35 35s35-15.67 35-35V213l201 201 0.25 0.25c0.42 0.42 0.85 0.83 1.29 1.22a34.789 34.789 0 0 0 19.95 8.85c0.04 0 0.08 0.01 0.12 0.01 0.39 0.04 0.77 0.06 1.16 0.08 0.18 0.01 0.37 0.03 0.55 0.04h0.17c0.5 0.02 1.01 0.04 1.51 0.04 1.02 0 2.04-0.05 3.06-0.14 0.1-0.01 0.2-0.01 0.29-0.02 0.25-0.02 0.49-0.06 0.74-0.09 0.32-0.04 0.64-0.07 0.96-0.12 0.1-0.01 0.2-0.03 0.3-0.05a34.86 34.86 0 0 0 10.42-3.34c0.01 0 0.01-0.01 0.02-0.01 0.77-0.39 1.53-0.81 2.28-1.26 0 0 0.01 0 0.01-0.01 0.68-0.41 1.34-0.85 1.99-1.3a35.624 35.624 0 0 0 2.14-1.62c0.1-0.08 0.19-0.17 0.29-0.25 0.48-0.4 0.95-0.82 1.41-1.26 0.17-0.16 0.34-0.32 0.5-0.48 0.11-0.11 0.22-0.21 0.33-0.31 0.41-0.41 0.8-0.83 1.19-1.25l0.05-0.05a31.578 31.578 0 0 0 1.76-2.13c0.99-1.29 1.89-2.63 2.67-4.02l0.03-0.06a36.2 36.2 0 0 0 2.16-4.54c0.01-0.03 0.02-0.05 0.03-0.08 0.3-0.77 0.57-1.54 0.81-2.33 0.01-0.02 0.01-0.04 0.02-0.06 0.24-0.77 0.44-1.55 0.62-2.33 0.03-0.12 0.05-0.23 0.08-0.35 0.16-0.71 0.29-1.43 0.41-2.15 0.01-0.08 0.03-0.16 0.04-0.24 0.11-0.76 0.2-1.53 0.26-2.29 0.01-0.18 0.03-0.35 0.04-0.53 0.05-0.78 0.09-1.56 0.09-2.34v-0.26c0-10.92-5.01-20.68-12.85-27.1l-198.9-198.9H384.5c19.33 0.03 35-15.64 35-34.97zM907.5 616.25c-19.33 0-35 15.67-35 35V828L673.59 629.09c-6.42-7.84-16.17-12.84-27.09-12.84h-0.25c-0.78 0-1.57 0.04-2.35 0.09-0.17 0.01-0.35 0.02-0.52 0.04-0.77 0.06-1.53 0.15-2.3 0.26-0.08 0.01-0.15 0.03-0.23 0.04-0.73 0.11-1.45 0.25-2.17 0.41-0.11 0.03-0.23 0.05-0.34 0.07-0.79 0.18-1.57 0.39-2.34 0.63-0.02 0-0.03 0.01-0.04 0.01-0.79 0.24-1.57 0.52-2.35 0.82-0.02 0.01-0.04 0.02-0.06 0.02-1.56 0.61-3.08 1.33-4.56 2.17-0.01 0.01-0.02 0.01-0.03 0.02-1.4 0.79-2.75 1.69-4.05 2.7l-0.3 0.24a38.01 38.01 0 0 0-3.11 2.75c-0.11 0.11-0.22 0.23-0.33 0.35-0.15 0.15-0.3 0.31-0.44 0.47-0.45 0.48-0.89 0.97-1.31 1.47l-0.21 0.24c-0.51 0.62-0.99 1.25-1.45 1.89-0.06 0.08-0.11 0.16-0.17 0.24-2 2.84-3.53 5.92-4.58 9.11-0.02 0.05-0.03 0.1-0.05 0.15-0.5 1.55-0.9 3.13-1.18 4.73-0.03 0.16-0.05 0.32-0.08 0.48-0.12 0.76-0.23 1.52-0.3 2.28 0 0.04-0.01 0.08-0.01 0.12-0.07 0.71-0.1 1.42-0.12 2.14-0.01 0.2-0.01 0.4-0.01 0.61-0.01 0.74 0 1.48 0.03 2.22 0 0.07 0.01 0.14 0.02 0.21 0.04 0.7 0.1 1.4 0.18 2.1l0.06 0.47c0.2 1.57 0.51 3.12 0.93 4.65l0.06 0.22c0.44 1.58 0.99 3.13 1.65 4.65 0.02 0.03 0.03 0.07 0.04 0.1 0.66 1.5 1.43 2.96 2.31 4.37 0.05 0.07 0.09 0.15 0.14 0.22 0.85 1.34 1.8 2.63 2.85 3.87l0.35 0.41c0.52 0.59 1.05 1.18 1.61 1.74l0.25 0.25 201 201H646.5c-19.33 0-35 15.67-35 35s15.67 35 35 35h261c19.33 0 35-15.67 35-35v-261c0-19.36-15.67-35.03-35-35.03zM923.41 97.08c-0.15-0.08-0.3-0.16-0.45-0.23-0.13-0.06-0.26-0.13-0.39-0.19a35.062 35.062 0 0 0-19.66-3.4H646.5c-19.33 0-35 15.67-35 35s15.67 35 35 35h175.75l-200.5 200.5-0.75 0.74c-0.56 0.56-1.1 1.15-1.62 1.74l-0.35 0.41c-1.05 1.24-2 2.53-2.85 3.87-0.04 0.07-0.09 0.14-0.13 0.21-0.88 1.41-1.66 2.87-2.32 4.37-0.01 0.03-0.03 0.06-0.04 0.1-0.66 1.52-1.22 3.07-1.66 4.65l-0.06 0.21c-0.42 1.53-0.73 3.09-0.93 4.66l-0.06 0.47c-0.08 0.7-0.15 1.4-0.18 2.11 0 0.07-0.01 0.14-0.02 0.21-0.04 0.74-0.04 1.48-0.03 2.22 0 0.2 0.01 0.4 0.01 0.61 0.02 0.71 0.06 1.42 0.12 2.13 0 0.04 0 0.08 0.01 0.12 0.07 0.76 0.18 1.52 0.3 2.28 0.03 0.16 0.05 0.32 0.08 0.48 0.28 1.6 0.67 3.17 1.18 4.73 0.02 0.05 0.03 0.1 0.05 0.16 0.54 1.64 1.2 3.24 1.99 4.8 0 0 0 0.01 0.01 0.01a34.84 34.84 0 0 0 2.58 4.29c0.06 0.09 0.12 0.17 0.18 0.26 0.46 0.64 0.93 1.27 1.44 1.88 0.07 0.09 0.15 0.18 0.23 0.26 0.41 0.49 0.84 0.97 1.28 1.44 0.15 0.16 0.3 0.32 0.46 0.48 0.11 0.11 0.21 0.23 0.32 0.34 0.42 0.42 0.85 0.83 1.29 1.22l0.01 0.01c0.59 0.53 1.19 1.03 1.81 1.51 0.11 0.08 0.21 0.16 0.32 0.25 1.3 1 2.64 1.9 4.04 2.69 0.01 0.01 0.03 0.01 0.04 0.02 1.47 0.84 2.99 1.56 4.55 2.16 0.02 0.01 0.05 0.02 0.07 0.03 0.77 0.3 1.55 0.57 2.34 0.81 0.02 0.01 0.03 0.01 0.05 0.02 0.77 0.24 1.55 0.44 2.34 0.62 0.11 0.03 0.23 0.05 0.34 0.08 0.72 0.16 1.44 0.3 2.16 0.41 0.08 0.01 0.15 0.03 0.23 0.04 0.76 0.11 1.53 0.2 2.3 0.26 0.17 0.01 0.35 0.03 0.52 0.04 0.22 0.02 0.45 0.04 0.67 0.05 0.56 0.03 1.12 0.04 1.68 0.04h0.75c11.84 0 22.31-5.89 28.64-14.89L872.5 212v177.25c0 19.33 15.67 35 35 35s35-15.67 35-35v-261c0-13.6-7.76-25.38-19.09-31.17zM419.41 648.15c-0.01-0.18-0.02-0.35-0.04-0.53-0.06-0.77-0.15-1.53-0.26-2.29-0.01-0.08-0.03-0.16-0.04-0.24-0.11-0.72-0.25-1.44-0.41-2.15-0.03-0.12-0.05-0.23-0.08-0.35-0.18-0.78-0.39-1.56-0.62-2.33-0.01-0.02-0.01-0.04-0.02-0.06-0.24-0.78-0.51-1.56-0.81-2.33-0.01-0.03-0.02-0.05-0.03-0.08-0.6-1.55-1.32-3.07-2.16-4.54-0.01-0.02-0.02-0.03-0.03-0.05-0.79-1.39-1.69-2.73-2.68-4.03-0.08-0.11-0.17-0.22-0.25-0.32-0.48-0.61-0.98-1.22-1.51-1.8 0-0.01-0.01-0.01-0.01-0.02-0.39-0.43-0.8-0.86-1.22-1.28-0.11-0.11-0.23-0.21-0.34-0.32-0.16-0.15-0.32-0.31-0.48-0.46-0.47-0.44-0.95-0.87-1.44-1.28-0.09-0.07-0.17-0.15-0.26-0.23-0.61-0.51-1.24-0.98-1.88-1.44-0.08-0.06-0.17-0.12-0.26-0.18a34.84 34.84 0 0 0-4.29-2.58s-0.01 0-0.01-0.01a34.455 34.455 0 0 0-4.96-2.04c-1.55-0.5-3.12-0.89-4.71-1.18-0.17-0.03-0.33-0.06-0.5-0.08-0.75-0.12-1.51-0.23-2.26-0.3-0.05 0-0.1-0.01-0.15-0.01-0.7-0.06-1.4-0.1-2.1-0.12-0.21-0.01-0.41-0.01-0.62-0.01-0.74-0.01-1.47 0-2.21 0.03-0.08 0-0.15 0.01-0.23 0.02-0.7 0.04-1.4 0.1-2.09 0.18l-0.47 0.06c-1.57 0.2-3.12 0.51-4.66 0.93l-0.21 0.06c-1.58 0.44-3.14 0.99-4.66 1.66-0.03 0.01-0.06 0.02-0.08 0.04-1.5 0.66-2.97 1.44-4.38 2.32-0.07 0.04-0.14 0.08-0.2 0.13-1.34 0.85-2.64 1.8-3.88 2.86-0.13 0.11-0.27 0.23-0.4 0.35-0.59 0.52-1.18 1.05-1.74 1.62l-0.77 0.73L158.5 827V651.25c0-19.33-15.67-35-35-35s-35 15.67-35 35v254.9c-1.82 10.79 1.42 22.27 9.75 30.6 2.84 2.84 6.05 5.08 9.47 6.74 4.74 2.4 10.1 3.76 15.78 3.76h261c19.33 0 35-15.67 35-35s-15.67-35-35-35H207.25l197.36-197.36c9-6.33 14.89-16.79 14.89-28.64v-0.75-0.01c0-0.78-0.04-1.56-0.09-2.34z" p-id="2621"></path></svg>