<?xml version="1.0" standalone="no"?><!DOCTYPE svg PUBLIC "-//W3C//DTD SVG 1.1//EN" "http://www.w3.org/Graphics/SVG/1.1/DTD/svg11.dtd"><svg t="1701077798509" class="icon" viewBox="0 0 1024 1024" version="1.1" xmlns="http://www.w3.org/2000/svg" p-id="2620" xmlns:xlink="http://www.w3.org/1999/xlink" width="200" height="200"><path d="M566 511.5l289.75-289.75c13.67-13.67 13.67-35.83 0-49.5-13.67-13.67-35.83-13.67-49.5 0L516.5 462 226.75 172.25c-13.67-13.67-35.83-13.67-49.5 0-13.67 13.67-13.67 35.83 0 49.5L467 511.5 177.25 801.25c-13.67 13.67-13.67 35.83 0 49.5C184.09 857.58 193.04 861 202 861s17.91-3.42 24.75-10.25L516.5 561l289.75 289.75C813.09 857.58 822.04 861 831 861s17.91-3.42 24.75-10.25c13.67-13.67 13.67-35.83 0-49.5L566 511.5z" p-id="2621"></path></svg>