<?xml version="1.0" standalone="no"?><!DOCTYPE svg PUBLIC "-//W3C//DTD SVG 1.1//EN" "http://www.w3.org/Graphics/SVG/1.1/DTD/svg11.dtd"><svg t="1700583945360" class="icon" viewBox="0 0 1024 1024" version="1.1" xmlns="http://www.w3.org/2000/svg" p-id="2620" xmlns:xlink="http://www.w3.org/1999/xlink" width="200" height="200"><path d="M515.71 955c-58.57 0-115.41-11.48-168.94-34.12-51.68-21.86-98.09-53.15-137.94-93-39.85-39.85-71.13-86.26-93-137.94C93.19 636.42 81.71 579.57 81.71 521s11.48-115.42 34.12-168.94c21.86-51.68 53.15-98.09 93-137.94 39.85-39.85 86.26-71.13 137.94-93C400.29 98.48 457.13 87 515.71 87s115.42 11.48 168.94 34.12c51.68 21.86 98.09 53.15 137.94 93 39.85 39.85 71.13 86.26 93 137.94 22.64 53.53 34.12 110.37 34.12 168.94s-11.48 115.42-34.12 168.94c-21.86 51.68-53.15 98.09-93 137.94-39.85 39.85-86.26 71.13-137.94 93C631.12 943.52 574.28 955 515.71 955z m0-798c-200.71 0-364 163.29-364 364s163.29 364 364 364 364-163.29 364-364-163.29-364-364-364z" p-id="2621"></path><path d="M515.71 676.73c-11.05 0-20-8.95-20-20V535.92c0-28.71 18.09-54.4 45.02-63.92 30.34-10.73 50.42-39.59 49.97-71.8-0.56-40.2-33.72-73.36-73.92-73.92-20.25-0.26-39.33 7.39-53.73 21.59-14.41 14.21-22.34 33.17-22.34 53.4 0 11.05-8.95 20-20 20s-20-8.95-20-20c0-31.02 12.17-60.1 34.25-81.88 22.08-21.78 51.3-33.53 82.38-33.1 29.98 0.42 58.25 12.4 79.6 33.75 21.35 21.35 33.34 49.62 33.75 79.6 0.69 49.38-30.1 93.61-76.62 110.07-10.98 3.89-18.37 14.42-18.37 26.21v120.81c0.01 11.05-8.95 20-19.99 20z" p-id="2622"></path><path d="M515.71 777.01m-30 0a30 30 0 1 0 60 0 30 30 0 1 0-60 0Z" p-id="2623"></path></svg>