<?xml version="1.0" standalone="no"?><!DOCTYPE svg PUBLIC "-//W3C//DTD SVG 1.1//EN" "http://www.w3.org/Graphics/SVG/1.1/DTD/svg11.dtd"><svg t="1700362127415" class="icon" viewBox="0 0 1024 1024" version="1.1" xmlns="http://www.w3.org/2000/svg" p-id="3691" xmlns:xlink="http://www.w3.org/1999/xlink" width="200" height="200"><path d="M341.42 946H253.5c-52.38 0-95-42.62-95-95V173c0-52.38 42.62-95 95-95h87.92c52.38 0 95 42.62 95 95v678c0 52.38-42.62 95-95 95zM253.5 148c-13.79 0-25 11.21-25 25v678c0 13.79 11.21 25 25 25h87.92c13.79 0 25-11.21 25-25V173c0-13.79-11.21-25-25-25H253.5zM779 946h-87.92c-52.38 0-95-42.62-95-95V173c0-52.38 42.62-95 95-95H779c52.38 0 95 42.62 95 95v678c0 52.38-42.62 95-95 95z m-87.92-798c-13.79 0-25 11.21-25 25v678c0 13.79 11.21 25 25 25H779c13.79 0 25-11.21 25-25V173c0-13.79-11.21-25-25-25h-87.92z" p-id="3692"></path></svg>