<?xml version="1.0" standalone="no"?><!DOCTYPE svg PUBLIC "-//W3C//DTD SVG 1.1//EN" "http://www.w3.org/Graphics/SVG/1.1/DTD/svg11.dtd"><svg t="1700362007277" class="icon" viewBox="0 0 1024 1024" version="1.1" xmlns="http://www.w3.org/2000/svg" p-id="2818" xmlns:xlink="http://www.w3.org/1999/xlink" width="200" height="200"><path d="M296.79 958.55c-13.97 0-28.06-3.13-41.31-9.49-33.23-15.96-53.87-48.77-53.87-85.63v-703.5c0-36.86 20.64-69.67 53.87-85.63C288.71 58.34 327.23 62.74 356 85.78l439.18 351.75c22.63 18.13 35.61 45.15 35.61 74.15 0 29-12.98 56.02-35.61 74.15L356 937.58c-17.3 13.86-38.13 20.97-59.21 20.97z m0.17-823.74c-4.92 0-8.96 1.53-11.17 2.59-4.26 2.05-14.18 8.34-14.18 22.53v703.5c0 14.19 9.91 20.49 14.18 22.54 4.26 2.05 15.37 5.85 26.46-3.02L751.43 531.2c8.16-6.53 9.37-15.03 9.37-19.51 0-4.48-1.22-12.98-9.37-19.51L312.24 140.42c-5.34-4.28-10.7-5.61-15.28-5.61z" p-id="2819"></path></svg>