<?xml version="1.0" standalone="no"?><!DOCTYPE svg PUBLIC "-//W3C//DTD SVG 1.1//EN" "http://www.w3.org/Graphics/SVG/1.1/DTD/svg11.dtd"><svg t="1700362085387" class="icon" viewBox="0 0 1024 1024" version="1.1" xmlns="http://www.w3.org/2000/svg" p-id="3400" xmlns:xlink="http://www.w3.org/1999/xlink" width="200" height="200"><path d="M916 112.7c-19.33 0-35 15.67-35 35v108.92c-39.44-53.15-90.83-97.4-149.2-128.35-63.57-33.71-135.45-51.53-207.85-51.53-59.96 0-118.14 11.75-172.94 34.93-52.91 22.38-100.41 54.41-141.2 95.19s-72.82 88.3-95.19 141.2C91.44 402.86 79.69 461.04 79.69 521s11.75 118.14 34.93 172.94c22.38 52.91 54.41 100.41 95.19 141.2s88.3 72.82 141.2 95.19c54.79 23.18 112.98 34.93 172.94 34.93 82.16 0 162.42-22.61 232.11-65.39 67.7-41.56 123.18-100.57 160.42-170.64 9.07-17.07 2.59-38.26-14.48-47.33s-38.26-2.59-47.33 14.48c-65.2 122.68-191.93 198.89-330.72 198.89-206.37 0-374.26-167.89-374.26-374.26s167.89-374.26 374.26-374.26c119.79 0 232.68 57.7 303.06 154.6H726.87c-19.33 0-35 15.67-35 35s15.67 35 35 35H916c19.33 0 35-15.67 35-35V147.7c0-19.33-15.67-35-35-35z" p-id="3401"></path></svg>