<?xml version="1.0" standalone="no"?><!DOCTYPE svg PUBLIC "-//W3C//DTD SVG 1.1//EN" "http://www.w3.org/Graphics/SVG/1.1/DTD/svg11.dtd"><svg t="1701144007825" class="icon" viewBox="0 0 1024 1024" version="1.1" xmlns="http://www.w3.org/2000/svg" p-id="3207" xmlns:xlink="http://www.w3.org/1999/xlink" width="200" height="200"><path d="M105 378.5c-19.33 0-35-15.67-35-35V116c0-19.33 15.67-35 35-35h241c19.33 0 35 15.67 35 35s-15.67 35-35 35H140v192.5c0 19.33-15.67 35-35 35zM346 964H105c-19.33 0-35-15.67-35-35V667.5c0-19.33 15.67-35 35-35s35 15.67 35 35V894h206c19.33 0 35 15.67 35 35s-15.67 35-35 35zM918 378.5c-19.33 0-35-15.67-35-35V151H670c-19.33 0-35-15.67-35-35s15.67-35 35-35h248c19.33 0 35 15.67 35 35v227.5c0 19.33-15.67 35-35 35zM918 964H670c-19.33 0-35-15.67-35-35s15.67-35 35-35h213V667.5c0-19.33 15.67-35 35-35s35 15.67 35 35V929c0 19.33-15.67 35-35 35zM794 534H225.5c-11.05 0-20-8.95-20-20s8.95-20 20-20H794c11.05 0 20 8.95 20 20s-8.95 20-20 20z" p-id="3208"></path></svg>