<?xml version="1.0" standalone="no"?><!DOCTYPE svg PUBLIC "-//W3C//DTD SVG 1.1//EN" "http://www.w3.org/Graphics/SVG/1.1/DTD/svg11.dtd"><svg t="1701164603390" class="icon" viewBox="0 0 1024 1024" version="1.1" xmlns="http://www.w3.org/2000/svg" p-id="2766" xmlns:xlink="http://www.w3.org/1999/xlink" width="200" height="200"><path d="M419.91 648.9c-0.01-0.18-0.02-0.35-0.04-0.53-0.06-0.77-0.15-1.53-0.26-2.29-0.01-0.08-0.03-0.16-0.04-0.24-0.11-0.72-0.25-1.44-0.41-2.15-0.03-0.12-0.05-0.23-0.08-0.35-0.18-0.78-0.39-1.56-0.62-2.33-0.01-0.02-0.01-0.04-0.02-0.06-0.24-0.78-0.51-1.56-0.81-2.33-0.01-0.03-0.02-0.05-0.03-0.08-0.6-1.55-1.32-3.07-2.16-4.54-0.01-0.02-0.02-0.03-0.03-0.05-0.79-1.39-1.69-2.73-2.68-4.03-0.08-0.11-0.17-0.22-0.25-0.32-0.48-0.61-0.98-1.22-1.51-1.8 0-0.01-0.01-0.01-0.01-0.02-0.39-0.43-0.8-0.86-1.22-1.28-0.11-0.11-0.23-0.21-0.34-0.32-0.16-0.15-0.32-0.31-0.48-0.46-0.47-0.44-0.95-0.87-1.44-1.28-0.09-0.07-0.17-0.15-0.26-0.23-0.61-0.51-1.24-0.98-1.88-1.44-0.08-0.06-0.17-0.12-0.26-0.18a34.84 34.84 0 0 0-4.29-2.58s-0.01 0-0.01-0.01c-1.56-0.79-3.16-1.45-4.8-1.99-0.05-0.02-0.1-0.03-0.15-0.05-1.55-0.5-3.13-0.9-4.73-1.18-0.16-0.03-0.32-0.05-0.48-0.08-0.76-0.12-1.52-0.23-2.28-0.3-0.04 0-0.08 0-0.11-0.01-0.71-0.07-1.43-0.1-2.15-0.13-0.2-0.01-0.4-0.01-0.6-0.01-0.25 0-0.5-0.01-0.74-0.01-0.08 0-0.16-0.01-0.24-0.01h-261c-19.33 0-35 15.67-35 35s15.67 35 35 35h177.25l-202 202c-13.67 13.67-13.67 35.83 0 49.5 6.83 6.83 15.79 10.25 24.75 10.25s17.91-3.42 24.75-10.25L349.5 736.5v175.75c0 19.33 15.67 35 35 35s35-15.67 35-35V657.87c0.32-1.91 0.5-3.87 0.5-5.87v-0.75-0.01c0-0.78-0.04-1.56-0.09-2.34zM419.5 129c0-19.33-15.67-35-35-35s-35 15.67-35 35v176.25L148.25 104c-13.67-13.67-35.83-13.67-49.5 0-13.67 13.67-13.67 35.83 0 49.5L300.25 355H123.5c-19.33 0-35 15.67-35 35s15.67 35 35 35h257.4c0.2 0.02 0.39 0.05 0.59 0.07 0.04 0 0.08 0.01 0.12 0.01 0.39 0.04 0.77 0.06 1.16 0.08 0.18 0.01 0.37 0.03 0.55 0.04h0.17c0.5 0.02 1.01 0.04 1.51 0.04 1.02 0 2.04-0.05 3.06-0.14 0.1-0.01 0.2-0.01 0.29-0.02 0.25-0.02 0.49-0.06 0.74-0.09 0.32-0.04 0.64-0.07 0.96-0.12 0.1-0.01 0.2-0.03 0.3-0.05a34.86 34.86 0 0 0 10.42-3.34c0.01 0 0.01-0.01 0.02-0.01 0.77-0.39 1.53-0.81 2.28-1.26 0 0 0.01 0 0.01-0.01 0.68-0.41 1.34-0.85 1.99-1.3a35.624 35.624 0 0 0 2.14-1.62c0.1-0.08 0.19-0.17 0.29-0.25 0.48-0.4 0.95-0.82 1.41-1.26 0.17-0.16 0.34-0.32 0.5-0.48 0.11-0.11 0.22-0.21 0.33-0.31 0.41-0.41 0.8-0.83 1.19-1.25l0.05-0.05a31.578 31.578 0 0 0 1.76-2.13c0.99-1.29 1.89-2.63 2.67-4.02l0.03-0.06a36.2 36.2 0 0 0 2.16-4.54c0.01-0.03 0.02-0.05 0.03-0.08 0.3-0.77 0.57-1.54 0.81-2.33 0.01-0.02 0.01-0.04 0.02-0.06 0.24-0.77 0.44-1.55 0.62-2.33 0.03-0.12 0.05-0.23 0.08-0.35 0.16-0.71 0.29-1.43 0.41-2.15 0.01-0.08 0.03-0.16 0.04-0.24 0.11-0.76 0.2-1.53 0.26-2.29 0.01-0.18 0.03-0.35 0.04-0.53 0.05-0.78 0.09-1.56 0.09-2.34V390c0-2-0.18-3.96-0.5-5.87V129zM611.28 391.09c0.02 0.71 0.06 1.42 0.12 2.13 0 0.04 0 0.08 0.01 0.12 0.07 0.76 0.18 1.52 0.3 2.28 0.03 0.16 0.05 0.32 0.08 0.48 0.28 1.6 0.67 3.17 1.18 4.73 0.02 0.05 0.03 0.1 0.05 0.16 0.54 1.64 1.2 3.24 1.99 4.8 0 0 0 0.01 0.01 0.01a34.84 34.84 0 0 0 2.58 4.29c0.06 0.09 0.12 0.17 0.18 0.26 0.46 0.64 0.93 1.27 1.44 1.88 0.07 0.09 0.15 0.18 0.23 0.26 0.41 0.49 0.84 0.97 1.28 1.44 0.15 0.16 0.3 0.32 0.46 0.48 0.11 0.11 0.21 0.23 0.32 0.34 0.42 0.42 0.84 0.82 1.28 1.21l0.02 0.02c0.59 0.53 1.19 1.03 1.8 1.51 0.11 0.09 0.22 0.17 0.33 0.25 1.29 1 2.64 1.89 4.03 2.68 0.02 0.01 0.03 0.02 0.05 0.03a36.2 36.2 0 0 0 4.54 2.16c0.02 0.01 0.05 0.02 0.07 0.03 0.77 0.3 1.55 0.57 2.33 0.81 0.02 0.01 0.04 0.01 0.06 0.02 0.77 0.24 1.55 0.44 2.34 0.62 0.12 0.03 0.23 0.05 0.35 0.08 0.72 0.16 1.44 0.3 2.16 0.41 0.08 0.01 0.15 0.03 0.23 0.04 0.76 0.11 1.53 0.2 2.3 0.26 0.17 0.01 0.35 0.03 0.52 0.04 0.78 0.05 1.57 0.09 2.35 0.09h0.73c1.4 0 2.77-0.09 4.12-0.25h256.13c19.33 0 35-15.67 35-35s-15.67-35-35-35H731.5L932.75 153.5c13.67-13.67 13.67-35.83 0-49.5-13.67-13.67-35.83-13.67-49.5 0l-202 202V128.75c0-19.33-15.67-35-35-35s-35 15.67-35 35v261.12c0 0.2 0.01 0.41 0.01 0.61s0.01 0.41 0.02 0.61zM731.5 687h176.25c19.33 0 35-15.67 35-35s-15.67-35-35-35h-261c-0.58 0-1.15 0.02-1.73 0.04-0.22 0.01-0.43 0.03-0.64 0.05-0.17 0.01-0.33 0.02-0.5 0.04-0.19 0.02-0.38 0.03-0.56 0.04-0.34 0.03-0.69 0.08-1.03 0.12-0.22 0.03-0.44 0.05-0.66 0.08-0.37 0.05-0.74 0.12-1.11 0.19-0.19 0.03-0.38 0.06-0.57 0.1-0.29 0.06-0.58 0.12-0.87 0.19l-0.24 0.06c-0.18 0.04-0.37 0.08-0.55 0.13-0.36 0.09-0.71 0.19-1.07 0.29-0.2 0.06-0.4 0.11-0.59 0.17-0.33 0.1-0.65 0.21-0.98 0.32-0.22 0.07-0.44 0.15-0.67 0.23-0.29 0.1-0.58 0.22-0.87 0.33-0.02 0.01-0.05 0.02-0.07 0.03l-0.69 0.27c-0.25 0.1-0.5 0.22-0.75 0.33-0.28 0.12-0.56 0.25-0.84 0.38-0.21 0.1-0.42 0.21-0.64 0.31-0.31 0.15-0.61 0.31-0.91 0.47l-0.54 0.3c-0.06 0.03-0.12 0.07-0.18 0.1-0.01 0.01-0.03 0.02-0.04 0.02-0.24 0.14-0.49 0.28-0.73 0.42-0.16 0.1-0.33 0.2-0.49 0.31-0.32 0.2-0.64 0.4-0.95 0.61l-0.48 0.33c-0.31 0.21-0.61 0.43-0.91 0.65-0.16 0.12-0.32 0.25-0.48 0.37-0.1 0.08-0.2 0.16-0.31 0.24l-0.56 0.44c-0.22 0.18-0.43 0.37-0.64 0.55-0.22 0.19-0.44 0.37-0.66 0.57-0.37 0.33-0.73 0.68-1.08 1.03-0.05 0.05-0.11 0.1-0.17 0.16-0.06 0.06-0.11 0.11-0.16 0.17-0.06 0.06-0.11 0.12-0.17 0.18-0.14 0.14-0.28 0.29-0.41 0.43-0.15 0.16-0.3 0.31-0.44 0.47-0.2 0.22-0.39 0.45-0.58 0.67-0.14 0.16-0.28 0.32-0.41 0.48-0.02 0.03-0.05 0.05-0.07 0.08-0.02 0.02-0.04 0.05-0.05 0.07-0.23 0.28-0.44 0.56-0.66 0.84-0.13 0.17-0.26 0.33-0.39 0.5-0.13 0.17-0.26 0.35-0.38 0.53-0.06 0.08-0.11 0.16-0.17 0.24-0.04 0.05-0.07 0.11-0.11 0.16-0.11 0.15-0.22 0.31-0.32 0.46-0.21 0.32-0.42 0.64-0.62 0.97l-0.3 0.48c-0.19 0.32-0.37 0.64-0.55 0.96-0.1 0.18-0.2 0.35-0.3 0.53-0.16 0.31-0.32 0.61-0.47 0.92-0.1 0.21-0.21 0.42-0.31 0.63-0.13 0.28-0.26 0.57-0.38 0.85-0.11 0.25-0.22 0.49-0.32 0.74s-0.2 0.51-0.3 0.76c-0.11 0.29-0.22 0.57-0.33 0.86-0.08 0.22-0.15 0.45-0.23 0.67-0.02 0.06-0.04 0.12-0.06 0.17v0.01c-0.09 0.26-0.17 0.52-0.25 0.79-0.06 0.2-0.11 0.4-0.17 0.6-0.1 0.35-0.2 0.71-0.29 1.06-0.05 0.18-0.09 0.37-0.13 0.56a21.995 21.995 0 0 0-0.34 1.68l-0.03 0.17c-0.02 0.1-0.04 0.21-0.05 0.31-0.03 0.21-0.07 0.42-0.1 0.63-0.03 0.22-0.06 0.44-0.08 0.66-0.04 0.34-0.09 0.68-0.12 1.02 0 0.03-0.01 0.06-0.01 0.09 0 0.04-0.01 0.08-0.01 0.12-0.02 0.23-0.03 0.45-0.05 0.68l-0.06 0.81c-0.01 0.21-0.01 0.43-0.02 0.64-0.01 0.2-0.01 0.4-0.01 0.61 0 0.16-0.01 0.32-0.01 0.48v261c0 19.33 15.67 35 35 35s35-15.67 35-35V736.25l201.5 201.5C890.08 944.58 899.04 948 908 948s17.92-3.42 24.75-10.25c13.67-13.67 13.67-35.83 0-49.5L731.5 687z" p-id="2767"></path></svg>