<?xml version="1.0" standalone="no"?><!DOCTYPE svg PUBLIC "-//W3C//DTD SVG 1.1//EN" "http://www.w3.org/Graphics/SVG/1.1/DTD/svg11.dtd"><svg t="1701139939078" class="icon" viewBox="0 0 1024 1024" version="1.1" xmlns="http://www.w3.org/2000/svg" p-id="2620" xmlns:xlink="http://www.w3.org/1999/xlink" width="200" height="200"><path d="M938.05 894.08L768.98 725.02c24.59-29.41 44.58-62.1 59.59-97.59 20.26-47.91 30.54-98.78 30.54-151.2 0-52.42-10.27-103.29-30.54-151.2-19.56-46.26-47.57-87.79-83.22-123.45-35.66-35.66-77.19-63.66-123.45-83.22-47.91-20.26-98.78-30.54-151.2-30.54s-103.29 10.27-151.2 30.54c-46.25 19.56-87.79 47.57-123.45 83.22-35.66 35.66-63.66 77.19-83.22 123.45-20.26 47.91-30.54 98.78-30.54 151.2 0 52.42 10.27 103.29 30.54 151.2 19.56 46.26 47.56 87.79 83.22 123.45s77.19 63.66 123.45 83.22c47.91 20.26 98.78 30.54 151.2 30.54s103.29-10.27 151.2-30.54c35.49-15.01 68.18-35 97.59-59.59l169.06 169.06c6.83 6.83 15.79 10.25 24.75 10.25s17.92-3.42 24.75-10.25c13.66-13.66 13.66-35.82 0-49.49zM470.7 794.64c-175.57 0-318.41-142.84-318.41-318.41s142.84-318.4 318.41-318.4 318.41 142.84 318.41 318.41-142.84 318.4-318.41 318.4z" p-id="2621"></path><path d="M641 447H300c-11.05 0-20 8.95-20 20s8.95 20 20 20h341c11.05 0 20-8.95 20-20s-8.95-20-20-20z" p-id="2622"></path></svg>