<?xml version="1.0" standalone="no"?><!DOCTYPE svg PUBLIC "-//W3C//DTD SVG 1.1//EN" "http://www.w3.org/Graphics/SVG/1.1/DTD/svg11.dtd"><svg t="1700362097400" class="icon" viewBox="0 0 1024 1024" version="1.1" xmlns="http://www.w3.org/2000/svg" p-id="3545" xmlns:xlink="http://www.w3.org/1999/xlink" width="200" height="200"><path d="M843.97 803.43a34.89 34.89 0 0 1-24-9.53c-14.07-13.26-14.72-35.41-1.46-49.48 118.72-125.94 115.78-320.51-6.68-442.97-13.67-13.67-13.67-35.83 0-49.5 13.67-13.67 35.83-13.67 49.5 0 71.87 71.87 112.22 167.4 113.63 269 1.41 101.39-36.06 197.81-105.52 271.48-6.88 7.32-16.17 11-25.47 11z" p-id="3546"></path><path d="M738.05 696.2c-8.13 0-16.29-2.81-22.91-8.55-14.61-12.66-16.19-34.76-3.53-49.37 57.6-66.47 53.94-167.32-8.34-229.59-13.67-13.67-13.67-35.83 0-49.5 13.67-13.67 35.83-13.67 49.5 0 42.95 42.95 67.73 100.03 69.77 160.71 2.03 60.38-18.58 118.7-58.03 164.22-6.92 7.99-16.66 12.08-26.46 12.08zM553.71 941.44c-6.42 0-12.84-1.77-18.49-5.28L216.56 737.97H83.84c-19.33 0-35-15.67-35-35v-360.8c0-19.33 15.67-35 35-35h132.72l318.67-198.19c10.79-6.71 24.38-7.05 35.49-0.87s18 17.88 18 30.59v767.73a34.99 34.99 0 0 1-18 30.59 34.953 34.953 0 0 1-17.01 4.42zM118.84 667.97h107.71c6.53 0 12.94 1.83 18.48 5.28l273.67 170.2V201.68l-273.67 170.2a35.004 35.004 0 0 1-18.48 5.28H118.84v290.81z" p-id="3547"></path></svg>